<?xml version="1.0" standalone="no"?>
<!DOCTYPE svg PUBLIC "-//W3C//DTD SVG 20010904//EN"
 "http://www.w3.org/TR/2001/REC-SVG-20010904/DTD/svg10.dtd">
<svg version="1.0" xmlns="http://www.w3.org/2000/svg"
 width="500.000000pt" height="500.000000pt" viewBox="0 0 500.000000 500.000000"
 preserveAspectRatio="xMidYMid meet">
<metadata>
Created by potrace 1.14, written by Peter Selinger 2001-2017
</metadata>
<g transform="translate(0.000000,500.000000) scale(0.100000,-0.100000)"
fill="#000000" stroke="none">
<path d="M0 2500 l0 -2500 2500 0 2500 0 0 608 0 607 -33 2 c-17 1 -56 5 -86
8 -36 3 -73 0 -109 -10 -85 -25 -198 -5 -266 48 -18 13 -15 14 27 7 26 -4 47
-4 47 -1 0 3 4 0 9 -8 10 -16 117 -25 126 -10 4 5 14 5 26 -1 11 -6 19 -7 19
-1 0 5 9 7 20 4 11 -3 27 1 36 8 18 15 85 19 76 5 -3 -5 2 -6 12 -3 10 4 24 7
31 7 8 0 25 11 39 24 l26 23 0 1842 0 1841 -2500 0 -2500 0 0 -2500z m4680
2176 c9 -12 5 -16 -27 -21 -85 -13 -84 -13 -71 2 26 32 79 41 98 19z m70 -68
c16 -18 30 -37 30 -43 0 -5 6 -21 13 -35 20 -38 39 -147 31 -173 -4 -12 -8
-26 -8 -32 -1 -9 -18 -65 -52 -173 -8 -24 -12 -47 -9 -51 2 -4 -9 -21 -26 -37
-32 -31 -66 -94 -76 -144 -3 -17 -10 -33 -14 -36 -5 -3 -9 -16 -9 -28 0 -14
-7 -26 -18 -28 -9 -3 -26 -22 -37 -44 -11 -21 -26 -45 -33 -52 -7 -8 -10 -17
-7 -22 3 -5 -3 -7 -12 -5 -10 1 -24 -3 -32 -9 -12 -9 -12 -8 -3 9 5 11 20 30
31 42 12 12 21 26 21 31 0 5 11 19 25 32 14 13 25 28 25 33 0 5 10 26 22 46
12 19 24 43 25 51 1 9 25 58 54 110 28 52 52 106 53 120 1 14 8 35 14 48 7 12
10 22 7 22 -4 0 2 15 12 33 25 42 23 157 -3 242 -17 56 -28 76 -62 111 -8 9
-9 14 -3 14 6 0 25 -15 41 -32z m-207 4 c-10 -10 -42 -35 -70 -55 -37 -26 -53
-33 -53 -22 0 8 6 15 13 15 7 0 26 14 43 31 26 28 56 47 77 48 4 1 0 -7 -10
-17z m-198 -176 c-32 -42 -55 -53 -55 -26 0 11 5 20 11 20 6 0 22 9 36 20 36
28 38 25 8 -14z m-1015 -48 c67 -22 89 -32 78 -39 -9 -6 -133 29 -183 52 -27
13 58 2 105 -13z m-3145 -66 c2 -11 8 -29 14 -40 6 -11 7 -22 4 -26 -3 -3 -1
-6 4 -6 13 0 11 -25 -2 -37 -4 -4 -5 -2 -1 5 4 6 3 12 -3 12 -5 0 -8 8 -6 18
1 9 -2 25 -7 35 -11 22 -22 74 -13 66 3 -4 7 -16 10 -27z m3495 -139 c0 -7
-53 33 -95 72 -22 20 -10 13 28 -16 37 -29 67 -54 67 -56z m-927 58 c-5 -18
-63 -55 -72 -45 -2 2 -2 5 0 7 2 2 19 15 37 30 40 32 42 33 35 8z m-553 -41
c0 -10 6 -23 13 -27 8 -4 19 -17 25 -28 7 -12 12 -15 12 -6 0 11 4 10 19 -3
11 -10 24 -16 28 -13 5 3 25 -7 44 -24 19 -16 39 -29 44 -29 6 0 27 18 49 40
21 22 43 40 48 40 6 0 21 9 35 19 13 11 30 18 38 15 7 -3 16 -1 20 5 8 13 25
14 25 2 0 -11 -86 -71 -101 -71 -5 0 -19 -11 -30 -24 -46 -53 -126 -58 -167
-11 -12 14 -26 26 -32 26 -5 1 -13 2 -17 3 -14 3 -38 21 -51 38 -16 20 -23 68
-11 68 5 0 9 -9 9 -20z m-1386 -99 c53 -40 96 -77 96 -82 0 -5 7 -9 15 -9 8 0
15 -4 15 -10 0 -20 -23 -9 -70 36 -26 25 -82 67 -123 94 -41 28 -77 56 -80 64
-8 22 31 -3 147 -93z m776 59 c0 -5 -5 -10 -11 -10 -5 0 -7 5 -4 10 3 6 8 10
11 10 2 0 4 -4 4 -10z m-65 -40 c-3 -5 -1 -10 6 -10 7 0 10 -3 6 -6 -9 -9 -28
6 -22 17 4 5 8 9 11 9 3 0 2 -4 -1 -10z m2009 -29 c19 -1 19 -2 -2 -21 -25
-24 -32 -25 -32 -5 0 7 -8 19 -17 24 -15 9 -14 10 7 7 14 -3 34 -5 44 -5z
m103 -45 c7 -1 16 -5 19 -9 4 -4 18 -7 31 -7 13 0 23 -4 23 -10 0 -5 5 -9 11
-7 6 1 13 -4 15 -11 1 -7 0 -8 -2 -3 -3 6 -11 8 -17 6 -7 -3 -39 9 -72 26 -33
16 -51 27 -40 24 11 -4 25 -8 32 -9z m-2671 -71 c4 -8 11 -15 18 -15 6 -1 26
-14 45 -30 19 -16 39 -26 44 -23 6 3 7 1 3 -5 -5 -8 -26 2 -65 28 -32 22 -64
40 -70 40 -7 0 -9 5 -6 10 9 15 25 12 31 -5z m2824 -22 c0 -1 -11 2 -25 9 -13
6 -22 15 -19 19 4 7 44 -19 44 -28z m-10 -17 c0 -2 -8 -10 -17 -17 -16 -13
-17 -12 -4 4 13 16 21 21 21 13z m-305 -85 c10 -73 31 -119 60 -133 29 -13 23
-28 -11 -28 -15 0 -38 12 -55 29 -24 25 -28 36 -24 63 3 18 11 38 16 44 7 9 7
19 0 33 -6 11 -11 32 -11 48 1 43 16 8 25 -56z m259 27 c-36 -41 -99 -103 -84
-83 18 25 94 105 99 105 2 0 -4 -10 -15 -22z m-2280 -73 c-4 -8 -11 -15 -16
-15 -6 0 -5 6 2 15 7 8 14 15 16 15 2 0 1 -7 -2 -15z m2157 -66 c-12 -19 -21
-30 -21 -26 0 12 33 67 38 63 1 -2 -6 -19 -17 -37z m-2241 21 c0 -4 -7 -7 -15
-6 -23 3 -26 12 -5 13 11 1 20 -2 20 -7z m60 6 c0 -3 -4 -8 -10 -11 -5 -3 -10
-1 -10 4 0 6 5 11 10 11 6 0 10 -2 10 -4z m-674 -191 c19 -19 31 -35 26 -35
-5 0 -18 11 -30 25 -12 14 -26 25 -32 25 -5 0 -10 5 -10 10 0 17 9 12 46 -25z
m142 -109 c23 -16 42 -34 42 -40 0 -8 -2 -8 -8 0 -4 6 -26 23 -49 37 -23 14
-45 32 -49 39 -6 10 -4 10 7 3 8 -6 33 -24 57 -39z m123 -79 c3 1 6 -4 6 -12
0 -9 -9 -7 -29 8 -34 25 -37 32 -5 15 12 -7 25 -12 28 -11z m68 -54 c2 -1 -6
-1 -17 0 -12 0 -19 3 -17 6 3 2 -1 11 -7 20 -8 10 -3 8 12 -4 14 -11 27 -21
29 -22z m61 -53 c0 -5 -2 -10 -4 -10 -3 0 -8 5 -11 10 -3 6 -1 10 4 10 6 0 11
-4 11 -10z m2454 -918 c3 -5 -1 -9 -9 -9 -8 0 -12 4 -9 9 3 4 7 8 9 8 2 0 6
-4 9 -8z m21 -41 c3 -5 0 -13 -6 -17 -7 -4 -9 -3 -5 4 3 5 0 13 -6 15 -9 4
-10 6 -1 6 6 1 14 -3 18 -8z m35 -57 c0 -8 -19 -13 -24 -6 -3 5 1 9 9 9 8 0
15 -2 15 -3z m25 -63 c3 -5 2 -12 -3 -15 -5 -3 -9 1 -9 9 0 17 3 19 12 6z
m-2148 -88 c-3 -10 -5 -4 -5 12 0 17 2 24 5 18 2 -7 2 -21 0 -30z m2208 -53
c-3 -5 -1 -11 5 -15 6 -4 8 -11 5 -16 -4 -5 -1 -9 5 -9 6 0 8 -5 4 -11 -4 -8
-9 -7 -15 2 -4 7 -5 17 -3 21 3 4 1 8 -4 8 -5 0 -12 9 -15 19 -3 14 -1 18 9
14 8 -3 12 -9 9 -13z m-2191 -45 c3 -27 10 -71 15 -97 5 -27 5 -48 0 -48 -5 0
-9 3 -10 8 0 4 -3 16 -6 27 -7 26 -16 172 -10 165 3 -3 7 -27 11 -55z m2230
19 c3 -8 2 -12 -4 -9 -6 3 -10 10 -10 16 0 14 7 11 14 -7z m2 -55 c1 -5 2 -14
3 -20 0 -5 5 -8 10 -4 5 3 13 0 17 -6 4 -8 3 -9 -4 -5 -18 11 -14 -3 7 -25 11
-12 24 -19 29 -16 5 4 9 0 9 -7 0 -9 -7 -12 -16 -9 -9 4 -4 -6 12 -24 31 -34
34 -42 10 -38 -10 1 -17 8 -15 14 1 6 -3 11 -9 11 -5 0 -7 5 -4 10 3 6 -2 10
-11 10 -10 0 -15 3 -11 6 3 4 -7 30 -22 60 -16 29 -26 55 -23 58 6 7 16 -2 18
-15z m-2197 -156 c6 -21 13 -53 16 -72 3 -19 8 -37 10 -41 2 -3 7 -29 10 -56
3 -27 12 -81 21 -120 10 -49 12 -78 5 -95 l-10 -24 0 26 c-1 14 -13 48 -27 75
-14 26 -26 65 -27 85 -1 20 -5 35 -8 33 -4 -2 -10 3 -13 12 -3 8 -2 12 4 9 5
-3 3 7 -5 22 -8 16 -11 31 -5 37 13 17 13 28 -2 37 -10 7 -10 9 0 9 8 0 10 5
6 12 -14 22 -11 50 4 56 12 4 12 7 -4 19 -16 11 -16 13 -1 13 10 0 20 -13 26
-37z m-699 13 c0 -9 -30 -14 -35 -6 -4 6 3 10 14 10 12 0 21 -2 21 -4z m3008
-44 c-4 -12 34 -82 44 -82 5 0 6 -4 3 -10 -3 -5 1 -10 9 -10 9 0 16 -6 16 -14
0 -7 14 -19 30 -26 17 -7 30 -16 30 -21 0 -5 7 -9 16 -9 8 0 23 -7 31 -16 11
-10 29 -15 54 -12 21 2 36 2 34 0 -8 -8 20 -29 32 -25 7 3 13 -1 13 -8 0 -11
3 -11 10 1 9 14 12 12 9 -6 0 -4 5 -10 13 -15 7 -5 13 -14 13 -21 0 -8 11 -12
28 -11 15 1 27 -2 27 -8 0 -6 -4 -7 -10 -4 -5 3 -10 1 -10 -4 0 -6 5 -11 11
-11 5 0 7 -6 3 -12 -5 -8 -1 -8 12 2 10 8 16 11 12 6 -9 -11 9 -46 23 -46 6 0
8 4 4 9 -3 5 -1 12 4 15 10 7 9 -13 -2 -31 -4 -6 -3 -14 3 -18 5 -3 10 -1 10
4 0 6 5 11 11 11 5 0 7 -5 4 -10 -4 -6 -1 -17 5 -25 14 -16 35 -21 25 -6 -3 5
-1 12 4 15 5 4 8 -2 6 -11 -1 -10 6 -26 16 -36 21 -20 25 -37 8 -37 -5 0 -7
-5 -3 -11 11 -19 -54 20 -73 43 -10 13 -38 39 -63 58 -25 19 -50 42 -57 50
-13 19 -133 104 -133 95 0 -3 -11 6 -25 20 -14 14 -29 25 -33 25 -4 0 -22 14
-40 30 -18 17 -38 30 -43 30 -16 0 -79 78 -79 98 0 5 -9 19 -20 32 -26 30 -26
44 0 30 11 -6 19 -14 18 -18z m-2261 -397 c0 -8 -3 -12 -6 -10 -8 5 -47 -24
-43 -33 1 -4 -2 -7 -7 -7 -5 0 -13 -3 -17 -7 -4 -5 -17 -8 -28 -8 -19 0 -19 1
4 18 13 9 40 27 60 39 19 11 35 22 36 22 0 1 1 -6 1 -14z m-127 -78 c0 -5 -6
-7 -14 -4 -8 3 -17 1 -20 -6 -2 -7 -5 -5 -5 5 -1 11 6 16 19 15 11 -1 20 -5
20 -10z m-66 -16 c3 -5 -5 -11 -19 -13 -24 -5 -32 2 -18 15 9 10 31 9 37 -2z
m-106 -62 c-21 -14 -25 -11 -25 23 l0 31 19 -23 c15 -18 16 -25 6 -31z m-120
19 c16 -16 15 -31 -2 -25 -7 3 -19 0 -26 -6 -10 -10 -10 -8 -2 9 6 12 8 24 5
28 -3 3 -2 6 3 6 6 0 15 -5 22 -12z m67 -18 c3 -5 1 -10 -4 -10 -6 0 -11 5
-11 10 0 6 2 10 4 10 3 0 8 -4 11 -10z m-190 -39 c3 -5 2 -12 -3 -15 -5 -3 -9
1 -9 9 0 17 3 19 12 6z m-111 -72 c3 -2 -9 -5 -26 -6 -18 0 -26 2 -18 7 13 8
36 8 44 -1z m73 -94 c0 -8 -4 -12 -9 -9 -5 3 -6 10 -3 15 9 13 12 11 12 -6z
m108 -75 c3 -5 1 -10 -4 -10 -6 0 -11 5 -11 10 0 6 2 10 4 10 3 0 8 -4 11 -10z
m39 -50 c-6 -6 -10 -2 -11 12 -2 16 1 18 10 9 7 -7 8 -14 1 -21z m275 -117
c-3 -21 3 -24 18 -12 11 10 14 10 9 2 -4 -7 -2 -13 3 -13 6 0 11 -4 11 -9 0
-5 -6 -8 -14 -7 -21 3 -47 27 -40 37 6 11 14 12 13 2z m28 -97 c0 -8 -6 -12
-14 -9 -7 3 -10 9 -7 14 8 14 21 11 21 -5z m-77 -88 c0 -15 -4 -28 -10 -28 -5
0 -9 4 -7 9 1 4 -9 17 -22 28 l-24 19 32 0 c27 0 31 -3 31 -28z m-25 -68 c-3
-5 0 -10 7 -10 10 0 9 -3 -2 -9 -8 -6 -18 -7 -24 -4 -5 4 -6 1 -2 -6 5 -7 15
-10 23 -7 8 3 11 1 8 -4 -9 -15 -44 -12 -41 4 1 8 8 21 15 30 15 18 26 22 16
6z m653 -19 c2 -1 0 -6 -3 -11 -5 -8 -11 -8 -19 -1 -7 6 -17 7 -21 3 -5 -4 -5
-2 -2 5 6 9 18 10 45 4z m-83 -10 c3 -5 2 -12 -3 -15 -5 -3 -9 1 -9 9 0 17 3
19 12 6z m167 -35 c7 4 8 2 4 -5 -9 -13 -26 -5 -25 12 0 9 2 8 6 -1 2 -6 10
-9 15 -6z m-237 -103 l-7 -38 -14 33 c-10 26 -11 38 -2 58 12 25 13 26 21 6 5
-11 6 -38 2 -59z m-42 60 c4 8 6 7 6 -3 2 -37 -39 -51 -66 -24 -15 14 -14 15
3 12 11 -2 18 2 16 10 -2 10 2 10 17 3 14 -8 21 -7 24 2z m-73 -54 c0 -5 -4
-9 -8 -9 -4 0 -8 -9 -9 -20 -1 -11 -8 -27 -16 -35 -13 -12 -17 -12 -33 0 -11
8 -17 15 -14 15 32 7 39 7 34 -2 -5 -7 -2 -8 5 -3 9 5 9 11 3 17 -7 7 -6 15 4
25 8 8 12 19 9 24 -4 5 1 6 9 3 9 -3 16 -10 16 -15z m407 -111 c-2 -24 -4 -7
-4 37 0 44 2 63 4 43 2 -21 2 -57 0 -80z m-774 83 c3 -13 0 -18 -7 -15 -7 3
-13 11 -13 19 0 22 14 18 20 -4z m-7 -57 c-19 -18 -19 -21 -4 -30 6 -4 8 -3 4
4 -3 6 -2 13 3 16 5 4 8 -2 7 -11 -4 -23 -24 -29 -32 -9 -9 22 2 46 21 46 15
0 15 -1 1 -16z m251 1 c0 -8 -4 -15 -9 -15 -5 0 -6 -5 -3 -10 4 -6 2 -17 -5
-24 -12 -15 -40 -15 -41 0 0 5 -6 16 -12 24 -9 12 -9 13 3 3 11 -10 16 -9 27
5 10 12 13 12 8 2 -3 -8 2 -5 11 8 19 26 21 27 21 7z m-87 -55 c0 -5 -8 -10
-17 -10 -15 0 -16 2 -3 10 19 12 20 12 20 0z m-44 -29 c0 -10 -14 -31 -29 -47
-27 -26 -28 -27 -45 -10 -10 11 -13 20 -6 22 5 3 26 15 45 29 18 13 35 24 35
25 1 0 1 -8 0 -19z m651 -23 c-3 -7 -5 -2 -5 12 0 14 2 19 5 13 2 -7 2 -19 0
-25z m-10 -70 c-2 -13 -4 -5 -4 17 -1 22 1 32 4 23 2 -10 2 -28 0 -40z m-10
-90 c-3 -8 -6 -5 -6 6 -1 11 2 17 5 13 3 -3 4 -12 1 -19z"/>
<path d="M1390 626 c0 -2 7 -7 16 -10 8 -3 12 -2 9 4 -6 10 -25 14 -25 6z"/>
<path d="M1826 412 c-3 -5 1 -9 9 -9 8 0 12 4 9 9 -3 4 -7 8 -9 8 -2 0 -6 -4
-9 -8z"/>
<path d="M1517 203 c-4 -3 -7 -11 -7 -17 0 -6 5 -5 12 2 6 6 9 14 7 17 -3 3
-9 2 -12 -2z"/>
<path d="M1477 179 c-18 -11 -14 -29 6 -29 7 0 6 4 -3 10 -13 8 -12 10 3 10 9
0 17 5 17 10 0 12 0 12 -23 -1z"/>
</g>
</svg>
