<svg width="100" height="100" viewBox="0 0 100 100" fill="none" xmlns="http://www.w3.org/2000/svg">
<path d="M63.1352 86.4423C83.2901 79.1595 93.725 56.9168 86.4422 36.7619C79.1594 16.607 56.9167 6.17209 36.7618 13.4549C16.6069 20.7377 6.17195 42.9804 13.4548 63.1353C20.7376 83.2902 42.9803 93.7251 63.1352 86.4423Z" fill="#FEEC48"/>
<path d="M43.7191 44.3715C45.2426 45.2511 48.4872 42.4835 50.9661 38.19C53.445 33.8964 54.2195 29.7027 52.696 28.8231C51.1724 27.9435 47.9278 30.7111 45.449 35.0046C42.9701 39.2982 42.1956 43.4919 43.7191 44.3715Z" fill="white"/>
<path d="M58.2899 52.7841C59.8134 53.6637 63.058 50.8961 65.5369 46.6026C68.0158 42.309 68.7903 38.1153 67.2668 37.2357C65.7432 36.3561 62.4986 39.1237 60.0198 43.4172C57.5409 47.7108 56.7664 51.9045 58.2899 52.7841Z" fill="white"/>
<path fill-rule="evenodd" clip-rule="evenodd" d="M71.0335 62.9633C63.4756 69.1619 51.844 70.0492 42.0227 64.3787C32.2014 58.7083 27.1537 48.1915 28.7431 38.5469C24.66 48.6965 29.4316 61.1216 40.2853 67.388C51.1386 73.6544 64.2847 71.5741 71.0335 62.9633Z" fill="white"/>
<path fill-rule="evenodd" clip-rule="evenodd" d="M70.4272 66.3823C71.0573 66.2045 71.6214 65.7898 71.9747 65.1777C72.6946 63.9313 72.2671 62.3375 71.0208 61.6176C70.4087 61.2643 69.7131 61.1873 69.0778 61.3483C69.387 61.4074 69.6911 61.5186 69.9789 61.6848C71.3637 62.4846 71.8386 64.2557 71.0388 65.6404C70.8725 65.9282 70.6646 66.1767 70.4272 66.3823Z" fill="white"/>
<path fill-rule="evenodd" clip-rule="evenodd" d="M31.2331 40.2176C31.2242 39.5626 30.9698 38.9104 30.47 38.4106C29.4522 37.3931 27.8021 37.3931 26.7843 38.4106C26.2846 38.9104 26.0303 39.5626 26.0212 40.2176C26.1586 39.935 26.3447 39.6697 26.5796 39.4346C27.7104 38.3035 29.5439 38.3035 30.6748 39.4346C30.9097 39.6697 31.0958 39.935 31.2331 40.2176Z" fill="white"/>
</svg>
