<svg width="262" height="176" viewBox="0 0 262 176" fill="none" xmlns="http://www.w3.org/2000/svg">
<path d="M258.382 175.436C260.003 175.777 261.594 174.739 261.936 173.118C262.277 171.497 261.239 169.906 259.618 169.564L258.382 175.436ZM137.118 146.281L139.859 147.503L137.118 146.281ZM0.529372 71.8213C0.167117 73.438 1.1841 75.0423 2.80087 75.4046L29.1476 81.3079C30.7644 81.6701 32.3687 80.6532 32.731 79.0364C33.0932 77.4196 32.0762 75.8153 30.4595 75.453L7.04013 70.2057L12.2875 46.7864C12.6497 45.1696 11.6328 43.5653 10.016 43.203C8.39922 42.8408 6.7949 43.8577 6.43265 45.4745L0.529372 71.8213ZM259.618 169.564C252.706 168.11 240.49 167.945 226.779 167.914C212.883 167.882 197.133 167.997 182.673 167.217C168.117 166.431 155.325 164.751 147.186 161.334C143.119 159.626 140.658 157.664 139.51 155.593C138.458 153.696 138.221 151.176 139.859 147.503L134.378 145.06C132.187 149.977 132.07 154.547 134.262 158.502C136.358 162.283 140.265 164.935 144.863 166.866C154.056 170.726 167.79 172.422 182.35 173.208C197.007 173.999 212.965 173.882 226.765 173.914C240.751 173.946 252.221 174.139 258.382 175.436L259.618 169.564ZM139.859 147.503C142.221 142.201 146.149 134.409 150.768 124.998C155.363 115.635 160.592 104.768 165.475 93.4706C170.354 82.1793 174.909 70.408 178.142 59.2337C181.364 48.0969 183.332 37.3601 182.892 28.1983C182.452 19.0206 179.557 10.9653 172.575 5.97337C165.681 1.04408 155.519 -0.369403 141.765 1.96448C114.286 6.62733 70.1453 26.651 1.8506 69.9434L5.06298 75.011C73.3408 31.7293 116.587 12.3226 142.768 7.87992C155.844 5.66108 164.081 7.2761 169.085 10.8542C174.002 14.3697 176.507 20.3007 176.899 28.4857C177.292 36.6868 175.525 46.6894 172.378 57.5662C169.242 68.4055 164.793 79.9219 159.967 91.0904C155.143 102.253 149.965 113.017 145.381 122.355C140.822 131.645 136.801 139.624 134.378 145.06L139.859 147.503Z" fill="#F79C00"/>
</svg>
