<svg width="193" height="101" viewBox="0 0 193 101" fill="none" xmlns="http://www.w3.org/2000/svg">
<path d="M190.088 91.4358C191.169 91.6632 192.23 90.9714 192.457 89.8905C192.685 88.8097 191.993 87.749 190.912 87.5215L190.088 91.4358ZM83.9697 89.4786L82.1429 88.6645L83.9697 89.4786ZM0.381242 43.9639C0.139739 45.0417 0.817729 46.1113 1.89557 46.3528L19.4601 50.2883C20.5379 50.5298 21.6075 49.8518 21.849 48.774C22.0905 47.6961 21.4125 46.6266 20.3346 46.3851L4.72174 42.8868L8.21998 27.274C8.46149 26.1961 7.7835 25.1266 6.70565 24.8851C5.62781 24.6436 4.55826 25.3216 4.31676 26.3994L0.381242 43.9639ZM190.912 87.5215C188.608 87.0366 185.04 87.0774 180.811 87.3796C176.51 87.6869 171.288 88.2863 165.546 89.0285C154.001 90.5207 140.411 92.5799 127.504 94.102C114.591 95.625 102.668 96.5685 94.5964 95.8672C90.4883 95.5103 87.7722 94.7522 86.3777 93.7449C85.7439 93.2871 85.4901 92.8556 85.3993 92.4565C85.3022 92.0295 85.3264 91.3475 85.7964 90.2928L82.1429 88.6645C81.4437 90.2331 81.1524 91.8203 81.499 93.3439C81.852 94.8955 82.8013 96.096 84.0355 96.9875C86.3771 98.6788 90.0571 99.488 94.2502 99.8522C102.781 100.593 115.081 99.595 127.973 98.0745C140.873 96.5532 154.671 94.4673 166.059 92.9955C171.783 92.2556 176.913 91.6683 181.097 91.3694C185.352 91.0653 188.4 91.0804 190.088 91.4358L190.912 87.5215ZM85.7964 90.2928C87.2379 87.0587 89.6342 82.3046 92.4568 76.5535C95.2637 70.8342 98.4592 64.1938 101.443 57.2899C104.425 50.3901 107.209 43.1934 109.187 36.359C111.157 29.5497 112.364 22.9715 112.094 17.3489C111.824 11.7156 110.045 6.73628 105.723 3.64611C101.459 0.597673 95.1988 -0.260009 86.7793 1.16868C69.9597 4.02277 42.975 16.2699 1.26206 42.712L3.40365 46.0904C45.1053 19.6554 71.4941 7.81958 87.4485 5.11231C95.416 3.76031 100.393 4.75235 103.397 6.89999C106.342 9.00589 107.861 12.569 108.099 17.5405C108.338 22.5226 107.264 28.6114 105.344 35.2473C103.432 41.8583 100.717 48.8851 97.771 55.7031C94.8264 62.5169 91.6648 69.0883 88.8659 74.7912C86.0827 80.4622 83.6244 85.3403 82.1429 88.6645L85.7964 90.2928Z" fill="#EAC566"/>
</svg>
