<svg width="131" height="85" viewBox="0 0 131 85" fill="none" xmlns="http://www.w3.org/2000/svg">
<path d="M130.929 5.08225C130.975 4.29292 130.372 3.61621 129.582 3.57079C128.793 3.52537 128.116 4.12842 128.071 4.91775L130.929 5.08225ZM70.5265 14.3772L70.9074 12.9972L70.5265 14.3772ZM45.1307 84.133C45.9194 84.1886 46.6039 83.5944 46.6595 82.8057L47.5667 69.9536C47.6224 69.1649 47.0282 68.4804 46.2395 68.4247C45.4508 68.3691 44.7663 68.9633 44.7107 69.752L43.9043 81.1761L32.4801 80.3698C31.6915 80.3141 31.007 80.9083 30.9513 81.697C30.8957 82.4857 31.4899 83.1701 32.2785 83.2258L45.1307 84.133ZM128.071 4.91775C127.937 7.23986 125.943 9.39219 121.834 11.1961C117.816 12.9605 112.254 14.1616 106.074 14.8298C93.7089 16.1666 79.3389 15.3245 70.9074 12.9972L70.1456 15.7571C79.0185 18.2063 93.769 19.04 106.382 17.6764C112.69 16.9943 118.582 15.7511 122.985 13.8177C127.299 11.9237 130.697 9.12457 130.929 5.08225L128.071 4.91775ZM70.9074 12.9972C68.2376 12.2603 64.2809 10.9625 59.5114 9.45418C54.7661 7.95347 49.2656 6.26068 43.587 4.76245C37.9115 3.26503 32.0327 1.95506 26.5298 1.22621C21.0453 0.499804 15.8391 0.336937 11.5476 1.19736C7.24851 2.05928 3.65414 3.9996 1.79651 7.64981C-0.0378234 11.2542 0.0196741 16.1498 2.10138 22.473C6.2604 35.1062 18.855 54.5057 44.1505 83.6434L46.3126 81.7665C21.0233 52.636 8.78354 33.6142 4.82094 21.5777C2.84185 15.5661 3.01671 11.5648 4.34823 8.9484C5.65644 6.37778 8.27637 4.77333 12.1104 4.00464C15.9519 3.23445 20.7975 3.35513 26.1539 4.06457C31.4918 4.77157 37.2428 6.04973 42.8566 7.53086C48.4672 9.01116 53.9152 10.6873 58.6481 12.1841C63.3567 13.6732 67.4078 15.0014 70.1456 15.7571L70.9074 12.9972Z" fill="#EAC566"/>
</svg>
